<svg id="logo_copy" data-name="logo copy" xmlns="http://www.w3.org/2000/svg" width="1217.031" height="242.84" viewBox="0 0 1217.031 242.84">
  <defs>
    <style>
      .cls-1 {
        fill: #04ff14;
      }

      .cls-1, .cls-2 {
        fill-rule: evenodd;
      }

      .cls-2 {
        fill: #fff;
      }
    </style>
  </defs>
  <path id="Rectangle_1_copy_5" data-name="Rectangle 1 copy 5" class="cls-1" d="M690.012,2074.02h-68.38V1970.5L518.67,2074.02H388.984l171.23-172.15H450.683v-68.86H690.012V1852h0v222.02Z" transform="translate(-388.969 -1831.19)"/>
  <path class="cls-2" d="M1548.63,1859.7c-16.55,0-29.34,14-29.34,31.95,0,15.04,8.45,26.63,21.29,30.53l-21.4,22.31c-19.72-9.6-32.5-28.94-32.5-53.33,0-33.6,26.22-59.96,61.79-59.96,26.53,0,46.9,20.03,52.53,28.82l-18,18C1579.68,1873.6,1568.24,1859.7,1548.63,1859.7Zm-155.23,25.86v63.25h-31.46v-115.3h29.66l47.21,60.94v-60.94h31.47v115.3h-27.87Zm-84.41-52.05h31.96v115.3h-31.96v-115.3Zm-48.03,115.3-28.85-42.83L1220.47,1919v29.81h-31.79v-115.3h31.79v46.78l39.5-46.78h37.7l-43.43,49.58,44.91,65.72h-38.19Zm-135.72-26.85c11.96,0,21.13-5.16,25.76-12.94l19,21c-11.32,13.66-25.84,21.1-45.75,21.1-32.78,0-59.17-25.2-59.17-59.96,0-33.6,25.74-60.23,60.48-59.96,21.28,0.17,32.94,8.99,42.44,18.82l-17.52,23.68c-6.56-8.24-14.26-13.34-25.24-13.34-16.07,0-27.38,13.67-27.38,30.8C1097.86,1908.46,1109.17,1921.96,1125.24,1921.96Zm-128.842,29c-32.617,0-53.105-16.64-53.105-52.72v-64.73h32.289v64.07c0,16.64,8.359,24.55,21.144,24.55s21.144-7.58,21.144-23.72v-64.9h32.29v63.91C1050.16,1934.65,1029.01,1950.96,996.4,1950.96Zm-100.646-2.15-23.111-34.92H858.71v34.92h-31.8v-115.3h54.252c17.538,0,29.667,4.61,37.371,12.35,6.72,6.75,10.162,15.65,10.162,27.34,0,17.63-9.343,29.33-23.6,35.42l27.372,40.19H895.752Zm-16.227-87.63H858.71v27.67h20.979c10.818,0,17.046-5.27,17.046-14C896.735,1865.79,890.179,1861.18,879.525,1861.18Zm-100.971,87.63h-31.8v-87.3H712.337v-28H812.973v28H778.554v87.3Z" transform="translate(-388.969 -1831.19)"/>
  <path id="Rectangle_1_copy_5-2" data-name="Rectangle 1 copy 5" class="cls-1" d="M1605.98,1949.03h-18.39v-27.49l-27.7,27.49h-34.88l46.06-45.72h-29.46v-18.29h64.37v5.05h0v58.96Z" transform="translate(-388.969 -1831.19)"/>
  <path id="times" class="cls-2" d="M1216.25,2072.7c8.03,0,14.84-1.8,19.99-4.67v-22.46a25.272,25.272,0,0,1-10.9,2.72c-5.3,0-7.87-2.42-7.87-8.14v-27.59h19.08V1989.5h-19.08v-20.65H1188.7v76.87C1188.7,2065.17,1198.99,2072.7,1216.25,2072.7Zm33.31-1.65h28.77V1989.5h-28.77v81.55Zm-0.6-88.94h29.98v-21.1h-29.98v21.1Zm45.42,88.94h28.77v-44.32c0-8.89,4.84-13.57,11.66-13.57s11.2,4.68,11.2,13.57v44.32h28.77v-44.32c0-8.89,5-13.57,11.81-13.57s11.21,4.68,11.21,13.57v44.32h28.77v-53.51c0-19-10.6-29.85-28.02-29.85-11.96,0-20.29,5.13-27.4,13.27-4.39-8.45-12.72-13.27-23.63-13.27-11.5,0-19.07,6.18-24.37,12.96V1989.5h-28.77v81.55Zm187.59,1.96c16.35,0,27.71-6.64,35.59-16.58l-15.9-13.12c-5.91,5.73-11.36,8.29-18.17,8.29-8.94,0-15.45-4.52-17.72-13.41h54.81c0.16-1.96.16-4.07,0.16-5.88,0-23.97-13.03-44.62-41.34-44.62-24.23,0-41.34,18.84-41.34,42.66C1438.06,2055.97,1456.23,2073.01,1481.97,2073.01Zm-16.66-49.44c1.52-8.9,6.67-14.78,14.24-14.78,7.87,0,13.17,5.73,14.23,14.78h-28.47Zm100.24,49.29c19.98,0,33.46-9.35,33.46-27.29,0-16.13-12.87-21.55-29.07-26.23-8.63-2.56-13.33-4.07-13.33-7.23,0-2.56,2.27-4.22,6.66-4.22,6.52,0,15.75,2.86,24.23,7.54l9.84-18.09c-9.38-6.03-21.8-9.5-33.76-9.5-18.93,0-32.86,9.65-32.86,26.98,0,16.73,12.87,22.01,29.07,26.38,8.63,2.26,13.18,3.77,13.18,6.93s-2.28,4.68-7.27,4.68c-8.48,0-18.78-3.17-28.17-9.35l-10.75,17.34A66.306,66.306,0,0,0,1565.55,2072.86Z" transform="translate(-388.969 -1831.19)"/>
</svg>
